# xmcd
#
# Track frame offsets:
#	150
#	10880
#	26148
#	36393
#	56995
#	72548
#	83478
#	96885
#	109198
#	122120
#	134603
#	145823
#	158558
#	172503
#	184948
#	198443
#	208565
#	223580
#	238163
#
# Disc length: 3537 seconds
# Revision: 0
# Processed by: cddbd v1.5.2PL0 Copyright (c) Steve Scherf et al.
# Submitted via: dBpowerAMP V12.0
#
DISCID=160dcf13
DTITLE=The Paul Butterfield Blues Band - The Original Lost Elektra Sessions
DYEAR=1995
DGENRE=Pop/Rock
TTITLE0=Good Morning Little Schoolgirl
TTITLE1=Just to Be with You
TTITLE2=Help Me
TTITLE3=Hate to See You Go
TTITLE4=Poor Boy
TTITLE5=Nut Popper #1
TTITLE6=Everything's Gonna Be Alright
TTITLE7=Lovin' Cup
TTITLE8=Rock Me
TTITLE9=It Hurts Me Too
TTITLE10=Our Love Is Driftin'
TTITLE11=Take Me Back, Baby
TTITLE12=Mellow Down Easy
TTITLE13=Ain't No Need to Go No Further
TTITLE14=Love Her with a Feeling
TTITLE15=Piney Brown Blues
TTITLE16=Spoonful
TTITLE17=That's All Right
TTITLE18=Goin' Down Slow
EXTD=
EXTT0=
EXTT1=
EXTT2=
EXTT3=
EXTT4=
EXTT5=
EXTT6=
EXTT7=
EXTT8=
EXTT9=
EXTT10=
EXTT11=
EXTT12=
EXTT13=
EXTT14=
EXTT15=
EXTT16=
EXTT17=
EXTT18=
PLAYORDER=
